PathFileType	4	(X/Y/Z)	Patient4_TMGait_0pt4_03_left_10.trc.trc
DataRate	CameraRate	NumFrames	NumMarkers	Units	OrigDataRate	OrigDataStartFrame	OrigNumFrames
75.675675675676	75.675675675676	4	33	mm	75.675675675676	106	       141
Frame#	Time	Sacral			L.Shoulder			Chest			R.Shoulder			Neck			R.ASIS			L.ASIS			R.Thigh.Superior			R.Thigh.Lateral			R.Thigh.Inferior			R.Patella			L.Thigh.Superior			L.Thigh.Lateral			L.Thigh.Inferior			L.Patella			L.Shank.Superior			L.Shank.Lateral			L.Shank.Inferior			R.Shank.Superior			R.Shank.Lateral			R.Shank.Inferior			R.Heel			R.Midfoot.Superior			R.Midfoot.Lateral			R.Toe			L.Heel			L.Midfoot.Lateral			L.Midfoot.Superior			L.Toe			L.Elbow			L.Wrist			R.Elbow			R.Wrist			
		X1	Y1	Z1	X2	Y2	Z2	X3	Y3	Z3	X4	Y4	Z4	X5	Y5	Z5	X6	Y6	Z6	X7	Y7	Z7	X8	Y8	Z8	X9	Y9	Z9	X10	Y10	Z10	X11	Y11	Z11	X12	Y12	Z12	X13	Y13	Z13	X14	Y14	Z14	X15	Y15	Z15	X16	Y16	Z16	X17	Y17	Z17	X18	Y18	Z18	X19	Y19	Z19	X20	Y20	Z20	X21	Y21	Z21	X22	Y22	Z22	X23	Y23	Z23	X24	Y24	Z24	X25	Y25	Z25	X26	Y26	Z26	X27	Y27	Z27	X28	Y28	Z28	X29	Y29	Z29	X30	Y30	Z30	X31	Y31	Z31	X32	Y32	Z32	X33	Y33	Z33	

106	14.107500000000	803.291504532301	1011.104647581501	541.429697734047	967.035931424122	1436.784405156560	348.141756761706	1085.996566505560	1369.711830807840	498.649581570279	1021.050326590827	1441.933455466513	681.067532329758	961.699361795101	1498.936581571938	507.006463712482	1038.378620898495	942.320277517102	638.998675483699	1003.281849374936	969.691827287528	367.642130297093	1056.722157022639	735.875757269685	606.513234149014	965.826884918202	632.443677033812	668.700682451026	1034.636315652300	574.768172229224	586.912834620379	1025.883094616975	489.572475635255	591.500796968915	1085.151103892194	788.383634228385	380.335553852282	1034.791972418447	663.639521626703	297.684227103859	1144.421707186609	604.603557071957	345.742774051052	1165.555802631147	526.566319814422	334.160577049994	1123.882744148654	451.940713184162	325.238579985593	1010.129959838669	357.913792906687	280.031164072931	1058.987108232189	232.196161957873	323.771917814603	994.183808418691	402.487691661217	596.354520022597	917.668881508125	301.074933146451	655.514572455109	954.510151459992	205.656631294712	588.782222660686	815.193945521641	44.238260108183	552.082762573302	985.433021360618	95.803294111710	593.656896130281	896.552524661433	36.737815666700	628.895503940503	1105.234755253081	41.178232855193	623.761349144166	921.664455596511	88.027682194559	366.289411534990	984.706756895025	78.308580647127	278.445554065396	1076.673730547847	131.290600873039	295.489356998833	1192.200147305608	68.978905391245	250.661300372817	892.827318388470	1088.073099264278	242.976828858573	928.079748317588	829.042730126782	224.618172554463	1068.605633972499	1107.447385175480	825.851994591674	1286.688218545876	978.849816808974	776.875379348893	
107	14.120714285714	802.688084209222	1011.318201710412	542.977798841326	965.872333421195	1436.568022456482	348.931983437907	1085.955531835620	1369.074107346887	498.347315879890	1022.859337650018	1441.500302435447	681.366411875199	962.052113875232	1498.619786802281	507.882156948653	1038.094662164415	941.843602694180	638.870342250908	1001.429320157883	969.495591381200	367.648639353421	1054.351876022410	735.187982922763	606.082983196517	963.135130860489	632.265733437281	669.051547980413	1030.829002855174	574.143054232584	586.912832480438	1021.487002977481	489.162931656311	591.686342757694	1082.526127663959	788.202203270093	380.619721355654	1032.704078061319	663.749873296855	297.446915279140	1141.705814928724	604.599045171964	346.792332043361	1164.145092614843	528.646365440135	334.648203058388	1126.237701288797	454.080259434618	324.808911450078	1018.662819749400	353.597608573286	278.777727283694	1075.541593549434	230.589125611849	321.477827967721	989.572726349064	402.244042740429	596.571810869492	912.865486455927	300.930915340320	655.824535931497	949.418736589448	205.501005784413	588.910743335600	809.879655773100	44.196003130613	552.139480571130	980.111145181573	95.765471224573	593.709589085560	891.217932650694	36.702520432627	628.891257920694	1099.895352476679	41.127345060909	623.797127296892	947.717037007822	77.960351680900	363.466343127232	1011.141421241081	72.293136800441	275.377936436052	1100.061130254544	130.390147615490	292.350469523360	1219.000567025936	74.959642030667	246.998772991697	885.178462054016	1089.131494129223	244.913929327723	914.196101723196	829.218098551583	229.323998223072	1074.452375430057	1108.052377404669	826.203567296094	1297.087069436265	989.672065832897	773.782431152933	
108	14.133928571429	802.092978583473	1011.403100581449	544.242981955590	964.739284889997	1436.296820068687	349.565778141724	1085.866447779392	1368.370088630958	497.931700895032	1024.500666807875	1440.919102871759	681.525744667101	962.340935428891	1498.226012406619	508.579322164694	1037.838508572813	941.345367294626	638.612778144445	999.740247824057	969.106981147802	367.502647260931	1052.063249671247	734.474309328088	605.679693946824	960.468532900221	632.075930182813	669.369555551705	1027.056319946472	573.506453860370	586.922734708546	1017.104313413234	488.736858169141	591.880886688617	1079.781653073420	787.506480402159	380.878943855818	1030.409984559545	663.501590521791	297.067693508799	1138.612033687123	604.004965975653	347.876578701894	1162.239227664013	530.243662808808	335.261656830434	1128.082475608934	455.994831412726	324.488261661610	1027.030073310728	349.501776294014	277.395326704163	1091.480542655442	229.651545442932	319.328496490360	984.969072530532	401.990081885109	596.779216843022	908.050797214049	300.778504393165	656.118016553961	944.326461015457	205.334573324167	589.032266267772	804.565771737460	44.141630658948	552.186234163156	974.790101081697	95.725550869027	593.758837831674	885.883051759139	36.666635289803	628.880792390601	1094.556886956071	41.074380114905	623.827421277188	973.211620410746	69.502460737185	360.571851621969	1037.112833404926	67.436757454221	272.496871064347	1122.844293214839	130.267742839739	289.516907280852	1244.821452479966	81.362029254413	244.242345841365	877.778004033134	1090.230310142671	246.724883350332	901.181139506460	829.632479109426	234.064749191886	1080.090195626510	1108.396731466377	826.094250170348	1306.790163783657	1000.418067492188	770.366766588696	
109	14.147142857143	801.530294069784	1011.368356745007	545.226800595447	963.642494259507	1435.994470801590	350.025341339454	1085.720361688636	1367.636313487975	497.404272510841	1025.935146493830	1440.228193988716	681.538015943412	962.548761717708	1497.781241191614	509.083240794799	1037.624028109694	940.850710147976	638.245109458170	998.237760119858	968.558144765142	367.213417178727	1049.892498308523	733.744915819470	605.347808443315	957.807969199259	631.893752426000	669.650508273482	1023.321278166428	572.869336048940	586.960001488417	1012.737702865011	488.307823691687	592.082385405684	1077.015479502250	786.392125192128	381.089617142368	1027.972331456306	662.944580973146	296.572496213210	1135.311332015833	602.939701116243	348.859630966777	1159.987198703904	531.400214819312	335.921204710126	1129.479665152739	457.690233089582	324.248322034526	1035.076255412222	345.752836781384	275.949826643014	1106.495663499102	229.383029496236	317.385108856764	980.364414949732	401.739813475998	596.970145360167	903.218949958093	300.638965576738	656.387058147184	939.237025568448	205.172910856925	589.149829391745	799.253080765642	44.087689730446	552.225506706469	969.473148974214	95.686491214166	593.807322653319	880.549866427160	36.631853881891	628.865108161247	1089.221137474640	41.018982180659	623.854361259894	997.551183008810	62.776007714921	357.755628428811	1062.042219031887	63.762585787219	269.939965071633	1144.554496768652	130.866423721507	287.076874618058	1269.182625566851	87.964440537007	242.472947557435	870.695971780233	1091.365756979740	248.400381021529	889.038599322195	830.238527074140	238.812513213018	1085.513415518240	1108.505784492955	825.491812152650	1315.774948217129	1011.037076042044	766.653363481364	
